<svg width="25" height="15" viewBox="0 0 25 15" fill="none" xmlns="http://www.w3.org/2000/svg">
<mask id="mask0_1_219" style="mask-type:luminance" maskUnits="userSpaceOnUse" x="0" y="0" width="25" height="15">
<path d="M24.2953 0H0V14.5835H24.2953V0Z" fill="white"/>
</mask>
<g mask="url(#mask0_1_219)">
<path d="M13.7079 0.684879C13.7322 0.687023 13.7565 0.689167 13.7815 0.691384C13.9053 0.702671 14.0278 0.716212 14.1502 0.731919C14.1975 0.737971 14.2449 0.743826 14.2922 0.749565C16.0468 0.962142 17.7173 1.43425 19.0947 2.12086C19.1299 2.13826 19.1655 2.15535 19.2011 2.17237C19.4906 2.31066 19.7519 2.46847 20.0137 2.62502C20.034 2.63716 20.0542 2.6493 20.0753 2.66181C20.1898 2.73079 20.2997 2.80119 20.4048 2.87544C20.4207 2.88652 20.4207 2.88652 20.4369 2.89782C20.9562 3.2592 21.4088 3.64897 21.7903 4.06781C21.8024 4.08108 21.8146 4.09442 21.8271 4.10813C22.1053 4.41526 22.3413 4.73508 22.5293 5.06605C22.5372 5.07991 22.5452 5.09383 22.5535 5.1082C22.6964 5.35875 22.8069 5.61119 22.8987 5.87012C22.9035 5.88324 22.9082 5.89629 22.9131 5.90978C22.9934 6.13452 23.04 6.3629 23.0835 6.59113C23.0856 6.60097 23.0876 6.61089 23.0897 6.6211C23.109 6.72296 23.1107 6.82439 23.1113 6.92684C23.1114 6.94595 23.1116 6.96498 23.1118 6.98401C23.1122 7.04482 23.1123 7.10563 23.1124 7.16645C23.1124 7.1768 23.1124 7.18708 23.1124 7.19773C23.1129 7.56407 23.102 7.92443 22.9849 8.2853C22.9705 8.33007 22.9579 8.37484 22.9462 8.4199C22.9191 8.51922 22.882 8.61707 22.8446 8.71515C22.8324 8.74694 22.8205 8.7788 22.8086 8.81067C22.7643 8.92836 22.7119 9.04211 22.6447 9.15601C22.6291 9.18569 22.6136 9.21544 22.5986 9.24526C22.5909 9.26021 22.5833 9.27508 22.5755 9.29047C22.5598 9.32139 22.5445 9.3523 22.5293 9.38329C22.4907 9.46117 22.4498 9.53584 22.3919 9.60934C22.368 9.64077 22.3467 9.67241 22.3259 9.70457C22.0318 10.1488 21.6427 10.5576 21.213 10.9584C21.1319 10.9375 21.0796 10.9095 21.0174 10.8721C20.9969 10.8597 20.9764 10.8475 20.9552 10.8348C20.9328 10.8212 20.9102 10.8075 20.8876 10.7939C20.8636 10.7795 20.8398 10.7652 20.8159 10.7508C20.751 10.7119 20.6863 10.6729 20.6217 10.6339C20.554 10.5931 20.4862 10.5524 20.4185 10.5117C20.2903 10.4346 20.1621 10.3575 20.0341 10.2803C19.8882 10.1924 19.7423 10.1046 19.5963 10.0169C19.296 9.83626 18.9959 9.65564 18.6959 9.47488C18.7259 9.42916 18.758 9.38541 18.7957 9.3418C18.9408 9.17227 19.0691 9.00164 19.1808 8.82328C19.1865 8.81432 19.1921 8.80535 19.1979 8.79609C19.2094 8.77808 19.2205 8.75999 19.2317 8.74198C19.245 8.72069 19.2584 8.69954 19.272 8.6784C19.3373 8.57515 19.3831 8.47044 19.4262 8.3631C19.4331 8.34626 19.4401 8.32934 19.4471 8.31191C19.4605 8.27925 19.4737 8.24658 19.4868 8.21391C19.5001 8.18161 19.5143 8.14974 19.5291 8.11773C19.5625 8.03774 19.5755 7.9552 19.592 7.87346C19.5979 7.84444 19.6039 7.81542 19.6101 7.7864C19.7408 7.15719 19.6996 6.45324 19.3136 5.8559C19.2892 5.81718 19.2682 5.77788 19.2469 5.73857C19.1868 5.62752 19.1226 5.51902 19.0423 5.41263C19.0346 5.40235 19.0268 5.39207 19.0189 5.38149C18.6466 4.89054 18.1422 4.43036 17.4951 4.05388C17.4385 4.02019 17.3824 3.98629 17.3267 3.95187C17.1905 3.86816 17.0474 3.79371 16.8948 3.72116C16.8713 3.70964 16.8479 3.69819 16.8238 3.6863C16.1681 3.36596 15.4198 3.12948 14.6267 2.95867C14.5833 2.9493 14.5399 2.93976 14.4968 2.9301C14.366 2.90093 14.2356 2.87539 14.1005 2.85465C14.0818 2.85176 14.0631 2.84887 14.0438 2.84588C13.7547 2.80183 13.4652 2.76575 13.1695 2.74114C13.1497 2.73948 13.1299 2.73783 13.1095 2.73612C12.7643 2.70897 12.4203 2.70575 12.0727 2.70561C12.0486 2.7056 12.0244 2.70558 11.9996 2.70557C11.6405 2.70571 11.2911 2.71233 10.9368 2.75067C10.9173 2.75267 10.8979 2.75468 10.8778 2.75674C9.47714 2.90317 8.1368 3.27288 7.09054 3.85628C7.04231 3.88304 6.99326 3.90878 6.94322 3.93437C6.75193 4.03427 6.57246 4.14474 6.41066 4.26192C6.40028 4.26928 6.38991 4.27672 6.37922 4.28438C5.96375 4.58232 5.59624 4.90738 5.32338 5.26074C5.30118 5.28918 5.27799 5.31726 5.25476 5.3454C5.13153 5.49831 5.03833 5.65647 4.9486 5.81732C4.94272 5.82775 4.93684 5.83818 4.93078 5.84897C4.83159 6.02623 4.73208 6.20962 4.70658 6.39687C4.70125 6.42794 4.69113 6.45747 4.68015 6.48795C4.646 6.5861 4.62788 6.6857 4.60944 6.78523C4.60748 6.79552 4.60554 6.80587 4.60352 6.81652C4.58934 6.89592 4.58209 6.97446 4.58084 7.05423C4.58061 7.06633 4.58038 7.07836 4.58015 7.09083C4.56455 8.14289 5.05595 9.16826 6.15664 10.0017C6.17519 10.0158 6.19372 10.0299 6.21283 10.0444C6.3125 10.1187 6.41657 10.1901 6.52359 10.2606C6.56668 10.2892 6.60858 10.3182 6.65024 10.3475C6.81014 10.4575 6.98601 10.5598 7.1727 10.6534C7.19161 10.6629 7.21052 10.6723 7.22999 10.6821C7.29514 10.7145 7.36081 10.7463 7.42672 10.7781C7.44876 10.7889 7.47078 10.7996 7.49347 10.8106C8.08988 11.0938 8.78158 11.3327 9.50487 11.4754C9.5547 11.4859 9.60269 11.4983 9.65128 11.5108C9.8135 11.5503 9.98263 11.5753 10.1517 11.6018C10.2087 11.6108 10.2656 11.6199 10.3225 11.6291C10.5715 11.6687 10.8204 11.6989 11.0754 11.7209C11.0908 11.7223 11.1062 11.7237 11.1221 11.725C11.4681 11.7545 11.8095 11.7552 12.1607 11.7625C12.1607 10.271 12.1607 8.77946 12.1607 7.24272C12.3425 7.33627 12.3425 7.33627 12.4118 7.37784C12.4276 7.38732 12.4435 7.3968 12.4598 7.40657C12.4851 7.42188 12.4851 7.42188 12.511 7.43741C12.5295 7.44849 12.5479 7.45951 12.5669 7.47088C12.6287 7.508 12.6903 7.54504 12.752 7.58215C12.7967 7.60899 12.8416 7.63582 12.8863 7.66265C12.9834 7.72099 13.0806 7.77932 13.1778 7.83766C13.3224 7.9245 13.4669 8.01127 13.6115 8.09797C13.8696 8.25292 14.1278 8.40787 14.3858 8.5629C14.6116 8.69845 14.8373 8.834 15.0631 8.96956C15.0856 8.98305 15.0856 8.98305 15.1084 8.99676C15.1693 9.03329 15.23 9.06975 15.2908 9.10621C15.8609 9.44841 16.4308 9.79068 17.0008 10.133C17.5075 10.4372 18.0143 10.7415 18.5212 11.0457C19.0904 11.3874 19.6596 11.7291 20.2287 12.0709C20.2893 12.1073 20.3499 12.1437 20.4105 12.1801C20.4255 12.189 20.4404 12.198 20.4558 12.2073C20.6815 12.3428 20.9074 12.4784 21.1332 12.6138C21.3898 12.7678 21.6462 12.9218 21.9026 13.0759C22.0463 13.1622 22.19 13.2484 22.3337 13.3347C22.4296 13.3922 22.5254 13.4498 22.6212 13.5073C22.6758 13.5402 22.7305 13.573 22.7853 13.6058C22.8441 13.641 22.9027 13.6763 22.9614 13.7116C22.9787 13.722 22.9959 13.7323 23.0138 13.743C23.0292 13.7523 23.0446 13.7616 23.0605 13.7712C23.0807 13.7833 23.0807 13.7833 23.1014 13.7957C23.1297 13.8144 23.1297 13.8144 23.1297 13.8283C22.3782 13.8773 21.6263 13.9096 20.8709 13.928C20.8432 13.9286 20.8155 13.9293 20.787 13.9301C19.4456 13.9626 18.254 13.9641 17.2224 13.3948C17.0199 13.2806 16.8339 13.158 16.6522 13.0319C16.6316 13.0177 16.6316 13.0177 16.6105 13.0031C16.2685 12.7662 15.951 12.5202 15.6582 12.2605C15.6277 12.2323 15.6276 12.2323 15.5784 12.22C15.5784 12.641 15.5784 13.0618 15.5784 13.4956C15.3204 13.5472 15.0688 13.5963 14.8062 13.6359C14.7751 13.6407 14.744 13.6455 14.7128 13.6502C14.2577 13.7193 13.8043 13.7666 13.3384 13.8006C13.3103 13.8028 13.2823 13.8051 13.2532 13.8074C12.1739 13.8881 11.0266 13.8443 9.96374 13.7118C9.90117 13.704 9.8385 13.6965 9.77577 13.6892C9.55428 13.663 9.33886 13.6295 9.12335 13.5893C9.05941 13.5774 8.99522 13.5662 8.93099 13.555C7.78005 13.3516 6.65734 13.0264 5.69478 12.5944C5.6639 12.5807 5.63302 12.567 5.60214 12.5533C5.35002 12.4412 5.10745 12.3247 4.87644 12.197C4.82519 12.1689 4.77323 12.1415 4.72056 12.1143C4.64114 12.0729 4.56755 12.0288 4.49387 11.9838C4.44974 11.9578 4.40413 11.9337 4.35685 11.9098C4.26804 11.8638 4.19129 11.8133 4.11393 11.7605C4.07131 11.7318 4.0283 11.7036 3.98422 11.6757C3.83519 11.5813 3.69564 11.4849 3.56395 11.3816C3.52255 11.3492 3.4802 11.3174 3.43658 11.286C2.88974 10.8909 2.42844 10.4192 2.09234 9.94629C2.08265 9.93265 2.07294 9.91909 2.06296 9.90509C2.03025 9.85908 1.99777 9.813 1.96532 9.76691C1.9544 9.75145 1.94348 9.736 1.93222 9.72003C1.73796 9.44425 1.58922 9.16928 1.46884 8.8787C1.46299 8.86485 1.45716 8.85099 1.45115 8.8367C1.23482 8.32241 1.11715 7.80783 1.11812 7.27736C1.11812 7.26445 1.11813 7.25147 1.11814 7.2382C1.11886 6.91277 1.13825 6.58828 1.22789 6.26672C1.23889 6.22705 1.24928 6.18738 1.25965 6.14771C1.34985 5.80712 1.48829 5.4795 1.6709 5.15268C1.67691 5.14189 1.68293 5.1311 1.68912 5.11994C1.78865 4.94166 1.89686 4.7668 2.02306 4.59464C2.03191 4.58232 2.04076 4.56999 2.04988 4.55738C2.19212 4.36014 2.35388 4.17121 2.53109 3.98461C2.54321 3.97178 2.55534 3.95902 2.56784 3.94582C2.74169 3.76316 2.92783 3.5873 3.1315 3.41616C3.15157 3.39929 3.15157 3.39929 3.17204 3.38207C3.3241 3.25487 3.48001 3.13085 3.65118 3.01268C3.70494 2.9752 3.756 2.93683 3.80696 2.89798C3.90904 2.8224 4.02235 2.75457 4.13826 2.68674C4.22054 2.63845 4.29711 2.5889 4.37111 2.53602C4.40799 2.51056 4.44779 2.48879 4.49108 2.46732C4.55549 2.43449 4.61561 2.40063 4.67438 2.3642C4.7646 2.30918 4.86218 2.26122 4.9624 2.21294C5.01863 2.1854 5.07253 2.15699 5.12612 2.12764C5.64591 1.8481 6.26245 1.62001 6.87251 1.41969C6.89468 1.41239 6.91685 1.4051 6.93969 1.39759C7.39492 1.24901 7.86987 1.10874 8.36721 1.01848C8.43049 1.00615 8.49064 0.992344 8.55213 0.977221C9.1764 0.825391 9.8578 0.746582 10.5211 0.684879C10.5452 0.682619 10.5452 0.682619 10.5698 0.680307C11.5917 0.585711 12.6866 0.591909 13.7079 0.684879Z" fill="#F84565"/>
<path d="M15.9578 8.24022C15.9662 8.25021 15.9745 8.26026 15.9832 8.27054C15.9623 8.28307 15.9414 8.29561 15.9199 8.30851C15.9324 8.28599 15.9449 8.2634 15.9578 8.24022Z" fill="#F84565"/>
<path d="M7.01145 5.38579C7.02411 5.40864 7.02411 5.40864 7.0083 5.42814C6.98615 5.44669 6.98615 5.44669 6.94819 5.46188C6.96509 5.43457 6.98565 5.41047 7.01145 5.38579Z" fill="#F84565"/>
</g>
</svg>
