<svg width="35" height="32" viewBox="0 0 35 32" fill="none" xmlns="http://www.w3.org/2000/svg">
<circle cx="16" cy="16" r="14" fill="#F84565"/>
<path fill-rule="evenodd" clip-rule="evenodd" d="M19.9829 26.21C19.0203 25.7732 17.9605 25.2348 16.9337 24.5984C17.9258 25.7405 18.989 26.0432 19.9829 26.21ZM22.3383 28.2277C22.4354 28.2277 23.2645 28.2277 23.2645 27.925C23.2645 27.7581 22.9991 27.218 22.7667 27.1526C22.2706 26.9497 21.2092 26.6796 21.1433 26.6796C21.0444 26.6796 20.1806 26.7828 20.0835 26.7828C20.0176 26.7828 19.3862 26.7467 19.0203 26.6487C18.5919 26.5455 18.0593 26.346 17.5633 26.0432C17.0655 25.7405 16.337 25.1006 16.0057 24.5623C15.808 24.2595 15.7074 23.857 15.4733 23.587C15.1767 23.1862 14.613 22.8474 14.1499 22.4122C13.685 21.9392 13.2185 21.4369 12.7901 20.9003C13.685 25.1351 19.1208 28.2277 22.3383 28.2277ZM20.3125 5.20299C18.6231 5.5728 16.6996 6.309 15.0449 7.99294C14.5124 8.5296 14.0475 9.2709 13.8498 9.84024C13.7526 10.0742 13.7526 10.4457 13.5844 10.6796C13.319 11.0856 12.8559 11.4193 12.5247 11.8579C12.0928 12.3275 11.8291 12.8331 11.595 13.3698C11.4978 13.5367 11.4631 13.7723 11.3643 13.9753C11.2325 14.2419 11 15.5199 11 15.9929C11 16.9682 11.3296 18.1774 11.7632 19.1183C11.7632 19.1527 11.7268 19.1527 11.7268 19.2524V20.0918C12.0927 25.2709 18.2259 29 22.073 29C22.5361 29 23.8612 28.9329 23.8612 27.992C23.8612 27.8888 23.7935 27.5878 23.7276 27.3522C24.4596 27.4554 25.8854 27.7237 26.7144 27.7237C27.3406 27.7237 30.2267 27.691 30.2267 26.1103C30.2267 24.6293 27.6406 24.5296 27.1428 24.5296C25.7518 24.5296 24.2931 24.9321 22.8674 25.6046C23.1015 25.6734 23.5299 25.8076 23.5958 25.8076C23.6964 25.8076 23.8282 25.7044 23.9618 25.6734C24.888 25.3346 25.9512 25.135 26.9121 25.135C27.4741 25.135 27.5747 25.1006 28.2373 25.2709C28.3032 25.2709 29.4636 25.5737 29.4636 26.0432C29.4636 26.3769 28.5356 26.5799 28.3379 26.6126C27.9407 26.6796 27.1116 26.7467 27.0457 26.7467C21.1432 26.7467 11.9922 21.7723 11.9922 15.8226C11.9922 14.7149 12.49 13.1359 13.4873 12.1245C13.5532 12.5631 13.6503 13.0327 13.8185 13.5057C13.9157 13.8084 14.181 14.3451 14.181 14.4122C14.181 14.4122 12.5247 16.2595 12.5247 16.6655C12.5247 16.9011 12.8871 17.94 12.8871 17.9744C13.2184 17.0679 13.685 16.1597 14.6129 15.2533C14.7448 15.3874 14.8766 15.587 15.0101 15.7573C15.1766 15.9929 15.3761 16.2286 15.5739 16.4625C16.0057 16.9682 16.9995 17.8403 16.9995 17.94C16.9995 17.94 15.808 19.1527 15.4073 20.5631C15.3414 20.7661 15.2425 21.1668 15.2425 21.2356C15.2425 21.4369 15.9051 21.8755 15.9051 21.9082C15.9398 20.7661 16.4029 19.5552 17.6309 18.413C19.0549 19.4881 20.5466 20.3636 21.9723 21.0671C21.1103 21.8084 20.6125 22.8835 20.6125 23.6558C20.6125 24.0256 20.8119 24.834 20.9784 24.9321C21.1779 25.068 21.4069 25.135 21.641 25.2038C21.3757 24.865 21.1433 24.0927 21.1433 23.759C21.1433 23.1535 21.5405 22.2109 22.2048 21.7052C22.3695 21.6055 22.6019 21.3698 22.6678 21.3698C22.7667 21.3698 23.5958 21.7397 24.0589 21.9082C24.5914 22.1112 25.1533 22.278 25.717 22.4448C27.4081 22.9505 29.0005 23.2533 30.6239 23.2533C31.2536 23.2533 34.0079 23.1862 34.0079 21.6725C34.0079 19.421 28.8981 19.2181 28.2061 19.2181C26.6797 19.2181 25.2192 19.3883 23.6617 20.0918C23.9617 20.1916 24.5255 20.4272 24.5914 20.4272C24.6902 20.4272 26.4143 19.925 27.9719 19.925C28.6691 19.925 29.5294 19.9938 30.192 20.1245C30.7245 20.2277 31.2535 20.3636 31.7184 20.5631C31.8849 20.5975 33.1112 21.1359 33.1112 21.6055C33.1112 21.6726 32.9134 21.8084 32.7799 21.8755C32.1156 22.2109 31.5189 22.1782 30.8564 22.1782C24.5914 22.1782 14.9789 17.1677 14.4135 11.9577V11.1183C14.7136 7.72287 19.884 5.53668 22.4042 5.53668C22.4701 5.53668 22.8986 5.57277 23.1674 5.63641C22.9992 5.70522 22.8015 5.70523 22.6332 5.77232C22.5014 5.80844 22.3383 5.87555 22.1701 5.93919C21.9047 6.04239 21.4416 6.27802 21.1433 6.54463C20.9126 6.7476 20.7808 7.05031 20.5466 7.21716C20.3801 7.38745 20.0488 7.35306 19.7834 7.45626C18.9231 7.72287 17.8599 8.12535 16.9649 8.52957C16.6024 8.72909 16.1393 8.93206 15.7386 9.16771C15.605 9.27092 15.5079 9.47046 15.4073 9.63731C15.2426 9.90736 15.0448 10.3459 14.9789 10.7158C16.6995 9.40163 18.4253 8.7291 20.1494 8.15976H20.2465C20.1806 9.06795 20.5466 9.97444 21.178 10.8826C19.2857 11.3883 17.2996 12.1245 15.3414 13.5057C15.442 13.7396 15.5738 14.008 15.7386 14.2419C16.5677 13.6364 17.4627 13.1669 18.2918 12.7644C18.4913 12.6663 21.2751 11.6222 21.707 11.6222C21.8076 11.6222 22.4701 12.2948 22.8327 12.5975C23.7276 13.3354 24.6227 13.9082 25.5194 14.4448C23.1015 14.7837 20.6785 15.3204 18.2606 16.9321C18.4254 17.0989 18.7913 17.4378 18.8885 17.4378C18.9544 17.4378 19.5857 16.9682 19.95 16.7979C21.6411 15.9568 24.8568 15.1535 26.8116 15.1535C26.9781 15.1535 28.8981 15.9929 29.3664 16.1254C30.7245 16.5296 32.2162 17.0318 33.6055 17.0318C34.0738 17.0318 35 17.0009 35 16.2286C35 14.7149 29.7289 14.3451 29.3664 14.3451H28.2061C29.0351 14.6805 30.0273 15.0503 30.8216 15.2533C31.5848 15.4562 32.3792 15.587 33.1112 15.8226C33.2447 15.857 33.3766 15.9568 33.5084 16.0256C33.5084 16.0256 33.5396 16.06 33.4425 16.06C33.3766 16.06 32.2821 15.8897 31.6871 15.7573C28.6691 15.0176 25.4222 13.8084 22.4355 11.0185C21.707 10.3098 21.1779 9.43778 21.0097 8.66547V7.99294C21.1103 7.25331 22.1701 6.48099 22.8327 6.27802C23.2645 6.14214 24.0937 5.9753 24.1908 5.9753C24.359 5.9753 24.5914 6.07506 24.7562 6.34511C23.6964 6.58076 22.4702 6.34508 21.5405 7.69017C21.5405 7.69017 21.5075 7.72287 21.5405 7.78995C21.8076 7.69019 25.0562 6.91444 25.5852 6.91444C25.783 6.91444 27.3406 8.02562 27.7065 8.25955C28.7004 8.86501 29.7289 9.43777 30.7245 9.94003L27.3093 9.97441C25.8194 10.0742 24.1249 10.2772 22.602 10.5799C22.6679 10.6126 23.2646 11.2524 23.3964 11.2524C23.4623 11.2524 24.5255 11.0494 25.0562 10.9824C26.0171 10.8465 27.011 10.8155 28.0066 10.7467L32.3133 10.8465C32.5475 10.8156 33.0105 10.7829 33.0105 10.3769C33.0105 10.0742 32.6481 9.87468 32.3792 9.77148C32.1815 9.70439 31.9508 9.57367 31.7531 9.50487C29.6301 8.5984 27.4429 7.38744 25.2852 6.00795C25.3511 5.97527 25.4881 5.9753 25.554 5.9753C25.6511 5.9753 25.9165 6.00796 26.1142 6.07504C26.083 6.11116 26.0484 6.11115 26.0172 6.11115C26.3138 6.278 26.8115 6.61172 26.9121 6.61172C27.1428 6.61172 27.4741 6.30896 27.4741 6.11115C27.4741 5.50569 26.1143 5.46959 26.0172 5.46959C24.6591 5.43691 24.5567 5.50571 24.4596 5.50571C24.3937 5.50571 23.8282 5.20298 23.4622 5.1359C22.9332 5.00002 22.6678 5 22.1701 5C21.6063 5 20.9438 5.0671 20.3125 5.20299Z" fill="white"/>
</svg>
